<svg xmlns="http://www.w3.org/2000/svg" role="img" class="crocs-logo" width="118" height="25" viewBox="0 0 118 25" aria-hidden="true" focusable="false" style="color: var(--color-brand-60); display: block;"><path d="M113.582 1.25163H111.608C111.342 1.25163 111.175 1.41175 111.175 1.64703C111.175 1.88231 111.343 2.04244 111.608 2.04244H112.164V3.82667C112.164 4.10443 112.336 4.28089 112.592 4.28089C112.854 4.28089 113.024 4.10443 113.024 3.82667V2.04244H113.581C113.847 2.04244 114.013 1.88231 114.013 1.64703C114.014 1.41175 113.847 1.25163 113.582 1.25163Z" fill="#83C342"/><path d="M117.381 1.23419C117.082 1.23419 116.867 1.3856 116.726 1.68842L116.196 2.81473L115.673 1.69604C115.528 1.38887 115.309 1.2331 115 1.2331C114.598 1.2331 114.361 1.47274 114.361 1.87686V3.87132C114.361 4.11967 114.516 4.2798 114.755 4.2798C114.999 4.2798 115.149 4.11967 115.149 3.86696L115.135 2.22979L115.735 3.50859C115.825 3.70248 115.975 3.79943 116.172 3.79943C116.369 3.79943 116.51 3.70684 116.604 3.50859L117.2 2.23959V3.86587C117.2 4.11859 117.349 4.27871 117.598 4.27871C117.846 4.27871 118 4.11858 118 3.87023V1.8627C118.002 1.47056 117.77 1.23419 117.381 1.23419Z" fill="#83C342"/><path d="M12.2527 17.4231C16.0109 17.4231 15.6196 14.1923 18.8679 14.1923C20.9821 14.1923 22.4299 15.6542 22.4299 17.6159C22.4299 20.9241 18.359 24.0002 12.3303 24.0002C5.04984 24.0002 0 19.2313 0 12.5007C0 5.73196 5.08864 1.00125 12.3702 1.00125C18.359 1.00125 22.4299 4.19391 22.4299 7.38548C22.4299 9.30805 20.9821 10.7317 18.9067 10.7317C15.7748 10.7317 16.0098 7.57828 12.2515 7.57828C9.47219 7.57828 7.74937 9.46273 7.74937 12.5018C7.75159 15.4232 9.59082 17.4231 12.2527 17.4231Z" fill="#83C342"/><path d="M27.8323 24C25.6794 24 24.114 22.5001 24.114 20.3847V4.57717C24.114 2.49993 25.6794 1 27.8323 1C29.5152 1 30.6904 1.88449 31.1993 3.34629C32.452 1.88449 34.2913 1 36.4054 1C38.9885 1 40.7502 2.49993 40.7502 4.73076C40.7502 6.73067 39.2236 8.26872 37.2269 8.26872C36.248 8.26872 35.3866 7.92233 34.33 7.92233C32.4509 7.92233 31.5507 8.96041 31.5507 11.115V20.3847C31.5507 22.5001 30.0241 24 27.8323 24Z" fill="#83C342"/><path d="M65.1757 12.5005C65.1757 19.2312 59.9695 24 52.6104 24C45.2512 24 40.0451 19.2312 40.0451 12.5005C40.0451 5.76993 45.2512 1 52.6104 1C59.9695 1 65.1757 5.76993 65.1757 12.5005ZM57.4252 12.5005C57.4252 9.53881 55.5072 7.57703 52.6104 7.57703C49.7135 7.57703 47.7956 9.53881 47.7956 12.5005C47.7956 15.4623 49.7135 17.4241 52.6104 17.4241C55.5072 17.423 57.4252 15.4623 57.4252 12.5005Z" fill="#83C342"/><path d="M78.9937 17.423C82.752 17.423 82.3606 14.1922 85.6089 14.1922C87.7231 14.1922 89.171 15.654 89.171 17.6158C89.171 20.9239 85.1001 24 79.0713 24C71.7898 24 66.7411 19.2312 66.7411 12.5006C66.7411 5.73181 71.8297 1.0011 79.1112 1.0011C85.1001 1.0011 89.171 4.19376 89.171 7.38533C89.171 9.3079 87.7231 10.7316 85.6477 10.7316C82.5159 10.7316 82.7509 7.57813 78.9926 7.57813C76.2133 7.57813 74.4904 9.46257 74.4904 12.5016C74.4915 15.4231 76.3319 17.423 78.9937 17.423Z" fill="#83C342"/><path d="M90.11 18.1539C90.11 16.423 91.4016 15.2303 93.2807 15.2303C96.2552 15.2303 97.0778 18.2301 100.914 18.2301C102.558 18.2301 103.263 17.6528 103.263 16.8075C103.263 16.0766 102.754 15.6148 101.619 15.4231L97.6255 14.7314C93.1632 13.9624 90.8927 11.7315 90.8927 8.26982C90.8927 3.92362 94.9248 1.0011 101.031 1.0011C106.355 1.0011 110.231 3.27006 110.231 6.34725C110.231 8.03998 109.057 9.19352 107.256 9.19352C104.633 9.19352 103.968 6.76989 100.876 6.76989C99.3882 6.76989 98.5268 7.30799 98.5268 8.19248C98.5268 8.88525 99.0356 9.26977 100.25 9.46148L104.438 10.1924C108.665 10.9233 110.897 13.116 110.897 16.5004C110.897 21.0383 106.826 24 100.562 24C94.6111 24 90.11 21.4228 90.11 18.1539Z" fill="#83C342"/></svg>