<?xml version="1.0" encoding="UTF-8"?>
<svg width="98px" height="35px" viewBox="0 0 98 35" version="1.1" xmlns="http://www.w3.org/2000/svg" xmlns:xlink="http://www.w3.org/1999/xlink">
    <title>probo-logo</title>
    <g id="probo-logo" stroke="none" stroke-width="1" fill="none" fill-rule="evenodd">
        <path d="M10.2892586,8.48312099 C12.0508203,8.48312099 13.5677021,8.97047526 14.8392355,9.94384674 C16.1101003,10.9185553 16.9972322,12.172707 17.499294,13.7063019 C18.0006873,15.2405653 18.2513839,16.7948845 18.2513839,18.3699279 C18.2513839,19.9563363 18.0501581,21.3508781 17.6477064,22.5522164 C17.2452547,23.7535547 16.691048,24.7603524 15.9850863,25.570604 C15.2791245,26.3821925 14.4394579,26.9912182 13.4654179,27.3990181 C12.4913779,27.808155 11.4324353,28.0113864 10.2892586,28.0113864 C9.26240518,28.0113864 8.33783598,27.8716648 7.51621952,27.5915531 C6.69326602,27.3114414 5.9906469,26.8742265 5.40702513,26.2792398 L5.40702513,34.67858 L-2.4158453e-13,34.67858 L-2.4158453e-13,8.86819103 L4.34006023,8.86819103 L5.05738688,10.582956 C5.82752696,9.91777429 6.6377785,9.40167348 7.49014707,9.0346536 C8.3411786,8.66696519 9.27443862,8.48312099 10.2892586,8.48312099 Z M44.4120797,8.32534924 C45.8821648,8.32534924 47.2031689,8.55599015 48.3757607,9.01660344 C49.5483524,9.47788526 50.5451223,10.1343762 51.3680758,10.9854077 C52.1903607,11.8371078 52.8227848,12.8693094 53.266685,14.0826811 C53.7099166,15.2960529 53.9311982,16.6491462 53.9311982,18.1426297 C53.9311982,19.6361131 53.7099166,20.9918805 53.266685,22.2106005 C52.8227848,23.4299889 52.1903607,24.4708814 51.3680758,25.3346149 C50.5451223,26.1976798 49.5483524,26.8648671 48.3757607,27.3381824 C47.2031689,27.8108291 45.8821648,28.0468182 44.4120797,28.0468182 C42.9533595,28.0468182 41.6410461,27.8108291 40.4751396,27.3381824 C39.3085646,26.8648671 38.3164744,26.1956742 37.5002062,25.325924 C36.6832694,24.4568424 36.0535194,23.4152814 35.6102878,22.2019096 C35.1663876,20.9892064 34.945106,19.6361131 34.945106,18.1426297 C34.945106,16.6611796 35.1663876,15.3161086 35.6102878,14.1087536 C36.0535194,12.9013986 36.6832694,11.8691969 37.5002062,11.0114802 C38.3164744,10.1544319 39.3085646,9.49259279 40.4751396,9.02529426 C41.6410461,8.55933277 42.9533595,8.32534924 44.4120797,8.32534924 Z M88.0145763,8.32534924 C89.4839929,8.32534924 90.804997,8.55599015 91.9769203,9.01660344 C93.149512,9.47788526 94.1476189,10.1343762 94.9699039,10.9854077 C95.7921888,11.8371078 96.4252814,12.8693094 96.8685131,14.0826811 C97.3117447,15.2960529 97.5330263,16.6491462 97.5330263,18.1426297 C97.5330263,19.6361131 97.3117447,20.9918805 96.8685131,22.2106005 C96.4252814,23.4299889 95.7921888,24.4708814 94.9699039,25.3346149 C94.1476189,26.1976798 93.149512,26.8648671 91.9769203,27.3381824 C90.804997,27.8108291 89.4839929,28.0468182 88.0145763,28.0468182 C86.5558561,28.0468182 85.2435428,27.8108291 84.0769677,27.3381824 C82.9103927,26.8648671 81.9183025,26.1956742 81.1020343,25.325924 C80.2850975,24.4568424 79.6553475,23.4152814 79.2127844,22.2019096 C78.7688842,20.9892064 78.5469341,19.6361131 78.5469341,18.1426297 C78.5469341,16.6611796 78.7688842,15.3161086 79.2127844,14.1087536 C79.6553475,12.9013986 80.2850975,11.8691969 81.1020343,11.0114802 C81.9183025,10.1544319 82.9103927,9.49259279 84.0769677,9.02529426 C85.2435428,8.55933277 86.5558561,8.32534924 88.0145763,8.32534924 Z M63.1006785,0.276315789 L63.1006785,10.0581644 C63.6843003,9.46317772 64.3869194,9.02529426 65.2092044,8.74518254 C66.0314893,8.46573936 66.9560586,8.32534924 67.982912,8.32534924 C69.1260887,8.32534924 70.1850313,8.5299177 71.1590713,8.93838609 C72.1331113,9.34618595 72.9727779,9.95588018 73.6787396,10.7668002 C74.3847014,11.5777203 74.9389081,12.5838495 75.3413598,13.7851878 C75.7431429,14.9865261 75.9450373,16.3810679 75.9450373,17.9674763 C75.9450373,19.5425197 75.7498282,20.9424097 75.3587414,22.1671464 C74.9676546,23.391883 74.4228073,24.4247532 73.7228623,25.2644198 C73.0222487,26.1040864 72.1825821,26.7465383 71.2025254,27.1891015 C70.2224686,27.6330016 69.149487,27.8542832 67.982912,27.8542832 C66.968092,27.8542832 66.0401802,27.670439 65.2005136,27.3034191 C64.3608469,26.9357307 63.5439102,26.4189614 62.7510402,25.7537796 L62.0330451,27.5039764 L57.6936534,27.5039764 L57.6936534,0.276315789 L63.1006785,0.276315789 Z M32.1453259,8.7632327 C32.682151,8.7632327 33.1367476,8.79799597 33.5104527,8.86819103 L33.5104527,13.6628478 C33.2423744,13.6160511 32.7403126,13.5926528 32.0056043,13.5926528 C30.0107276,13.5926528 28.4764642,14.5259128 27.4034826,16.3924328 L27.4034826,27.5039764 L21.9964574,27.5039764 L21.9964574,8.86819103 L26.3010859,8.86819103 L27.0879391,11.597776 C27.7410874,10.6879144 28.4764642,9.98796935 29.293401,9.49794099 C30.1096692,9.00791262 31.0603109,8.7632327 32.1453259,8.7632327 Z M44.4120797,13.0678611 C43.1753096,13.0678611 42.2186512,13.4876944 41.5421045,14.3273611 C40.8655579,15.1676962 40.5272845,16.4392295 40.5272845,18.1426297 C40.5272845,19.8921579 40.8715746,21.1904323 41.5594862,22.0361156 C42.2480663,22.8817989 43.1987079,23.3043063 44.4120797,23.3043063 C45.6722481,23.3043063 46.6429455,22.8791248 47.3255089,22.0274248 C48.0080723,21.1757247 48.3496882,19.880793 48.3496882,18.1426297 C48.3496882,16.4392295 48.0080723,15.1676962 47.3255089,14.3273611 C46.6429455,13.4876944 45.6722481,13.0678611 44.4120797,13.0678611 Z M88.0145763,13.0678611 C86.7778062,13.0678611 85.8204793,13.4876944 85.1446012,14.3273611 C84.4680545,15.1676962 84.1291126,16.4392295 84.1291126,18.1426297 C84.1291126,19.8921579 84.4734027,21.1904323 85.1613143,22.0361156 C85.8492259,22.8817989 86.800536,23.3043063 88.0145763,23.3043063 C89.2740762,23.3043063 90.2454421,22.8791248 90.927337,22.0274248 C91.6105689,21.1757247 91.9508478,19.880793 91.9508478,18.1426297 C91.9508478,16.4392295 91.6105689,15.1676962 90.927337,14.3273611 C90.2454421,13.4876944 89.2740762,13.0678611 88.0145763,13.0678611 Z M9.13471703,13.3479729 C8.27098354,13.3479729 7.53627525,13.5284744 6.92992365,13.8901461 C6.32290352,14.2518178 5.81549352,14.7766094 5.40702513,15.4651895 L5.40702513,20.977173 C6.30552188,22.4592915 7.47811363,23.2000165 8.92480038,23.2000165 C9.7758319,23.2000165 10.4965012,22.9954481 11.0854711,22.5869797 C11.6744411,22.1791798 12.0829095,21.5982321 12.3102078,20.8461422 C12.5381746,20.0933838 12.6518238,19.2684247 12.6518238,18.3699279 C12.6518238,17.0636313 12.453272,16.0160536 12.0568371,15.2292004 C11.6604021,14.4410102 11.1877554,13.9309261 10.6395654,13.6976111 C10.0913754,13.4642961 9.5893136,13.3479729 9.13471703,13.3479729 Z M66.6177852,13.1380562 C65.171767,13.1380562 63.9991753,13.8787812 63.1006785,15.3602312 L63.1006785,20.8722147 C63.5091469,21.5607948 64.0165569,22.0855864 64.6229085,22.4472581 C65.2299286,22.8089298 65.9646369,22.9900999 66.8283704,22.9900999 C67.5630787,22.9900999 68.2075362,22.7821888 68.7617429,22.3683722 C69.3152811,21.9545556 69.7184013,21.3475355 69.9690979,20.5486489 C70.2197945,19.7497622 70.3454771,18.8893714 70.3454771,17.9674763 C70.3454771,16.6839095 70.1495995,15.6724321 69.7591812,14.9310386 C69.3680945,14.1903136 68.8814087,13.7063019 68.297787,13.4790036 C67.7141652,13.2517053 67.1546103,13.1380562 66.6177852,13.1380562 Z" id="Combined-Shape" fill="#E73C3E"></path>
    </g>
</svg>