<svg width="57" height="56" viewBox="0 0 57 56" fill="none" xmlns="http://www.w3.org/2000/svg">
<path d="M24.7925 19.4156C26.4421 16.4563 27.267 14.9767 28.5 14.9767C29.733 14.9767 30.5579 16.4563 32.2075 19.4156L32.6344 20.1812C33.1029 21.0221 33.3374 21.4425 33.7028 21.7199C34.0682 21.9973 34.5235 22.1003 35.4338 22.3063L36.2624 22.4938C39.4658 23.2186 41.0674 23.5809 41.4485 24.8064C41.8296 26.0317 40.7377 27.3085 38.554 29.8623L37.9887 30.5229C37.3683 31.2485 37.0581 31.6113 36.9185 32.0604C36.7789 32.5092 36.8258 32.9934 36.9195 33.9615L37.005 34.8429C37.3352 38.2501 37.5001 39.9538 36.5025 40.711C35.505 41.4684 34.0055 40.7779 31.0062 39.3969L30.2303 39.0396C29.3778 38.6473 28.9517 38.4509 28.5 38.4509C28.0484 38.4509 27.6222 38.6473 26.7697 39.0396L25.9938 39.3969C22.9947 40.7779 21.495 41.4684 20.4974 40.711C19.4998 39.9538 19.6649 38.2501 19.995 34.8429L20.0804 33.9615C20.1743 32.9934 20.2212 32.5092 20.0816 32.0604C19.942 31.6113 19.6317 31.2485 19.0112 30.5229L18.4462 29.8623C16.2624 27.3085 15.1705 26.0317 15.5515 24.8064C15.9326 23.5809 17.5342 23.2186 20.7375 22.4938L21.5663 22.3063C22.4766 22.1003 22.9317 21.9973 23.2972 21.7199C23.6626 21.4425 23.8971 21.0221 24.3656 20.1812L24.7925 19.4156Z" fill="#10012B"/>
<path opacity="0.8" fill-rule="evenodd" clip-rule="evenodd" d="M28.5 0C29.5788 0 30.4535 0.874616 30.4535 1.95349V7.16279C30.4535 8.24166 29.5788 9.11628 28.5 9.11628C27.4212 9.11628 26.5465 8.24166 26.5465 7.16279V1.95349C26.5465 0.874616 27.4212 0 28.5 0ZM0.5 28C0.5 26.9212 1.37462 26.0465 2.45349 26.0465H7.66279C8.74166 26.0465 9.61628 26.9212 9.61628 28C9.61628 29.0788 8.74166 29.9535 7.66279 29.9535H2.45349C1.37462 29.9535 0.5 29.0788 0.5 28ZM47.3837 28C47.3837 26.9212 48.2584 26.0465 49.3372 26.0465H54.5465C55.6254 26.0465 56.5 26.9212 56.5 28C56.5 29.0788 55.6254 29.9535 54.5465 29.9535H49.3372C48.2584 29.9535 47.3837 29.0788 47.3837 28ZM28.5 46.8837C29.5788 46.8837 30.4535 47.7584 30.4535 48.8372V54.0465C30.4535 55.1254 29.5788 56 28.5 56C27.4212 56 26.5465 55.1254 26.5465 54.0465V48.8372C26.5465 47.7584 27.4212 46.8837 28.5 46.8837Z" fill="#10012B"/>
<g opacity="0.5">
<path d="M45.5095 10.9907C46.2724 11.7536 46.2724 12.9905 45.5095 13.7534L44.6156 14.6475C43.8527 15.4103 42.6157 15.4103 41.8528 14.6475C41.0899 13.8846 41.0899 12.6477 41.8528 11.8848L42.747 10.9907C43.5099 10.2279 44.7468 10.2279 45.5095 10.9907Z" fill="#10012B"/>
<path d="M11.4908 10.9913C12.2537 10.2284 13.4906 10.2284 14.2534 10.9913L15.1475 11.8854C15.9104 12.6483 15.9104 13.8851 15.1475 14.648C14.3846 15.4109 13.1478 15.4109 12.3849 14.648L11.4908 13.754C10.7279 12.9911 10.7279 11.7542 11.4908 10.9913Z" fill="#10012B"/>
<path d="M15.1473 41.353C15.9102 42.1159 15.9102 43.3528 15.1473 44.1158L14.2538 45.0091C13.4909 45.772 12.254 45.772 11.4911 45.0091C10.7282 44.2465 10.7282 43.0096 11.4911 42.2467L12.3846 41.353C13.1475 40.5901 14.3844 40.5901 15.1473 41.353Z" fill="#10012B"/>
<path d="M41.8528 41.3538C42.6157 40.5909 43.8527 40.5909 44.6156 41.3538L45.509 42.2472C46.2719 43.0101 46.2719 44.247 45.509 45.0099C44.7461 45.7728 43.5091 45.7728 42.7462 45.0099L41.8528 44.1163C41.0899 43.3534 41.0899 42.1167 41.8528 41.3538Z" fill="#10012B"/>
</g>
</svg>
