<svg width="45" height="44" viewBox="0 0 45 44" fill="none" xmlns="http://www.w3.org/2000/svg">
<path d="M30.1956 14.8799C33.555 12.8904 35.2348 11.8956 36.4685 12.6015C37.7022 13.3073 37.6726 15.2462 37.6136 19.1242L37.5985 20.1273C37.5818 21.2293 37.5733 21.7803 37.7787 22.2645C37.9841 22.7486 38.38 23.1113 39.1717 23.8364L39.8923 24.4966C42.6784 27.0487 44.0714 28.3247 43.7448 29.7577C43.4183 31.1906 41.5884 31.8315 37.9289 33.113L36.982 33.4448C35.942 33.809 35.422 33.991 35.0232 34.3561C34.6243 34.7214 34.3916 35.2281 33.9262 36.2415L33.5026 37.1643C31.8648 40.731 31.046 42.5144 29.6106 42.6943C28.1752 42.8741 27.0737 41.3312 24.8708 38.2454L24.301 37.447C23.675 36.5702 23.3619 36.1319 22.91 35.8732C22.4582 35.6147 21.9185 35.5653 20.8391 35.4665L19.8566 35.3766C16.0584 35.029 14.1594 34.855 13.5988 33.5334C13.0382 32.2115 14.1873 30.617 16.4855 27.4283L17.0801 26.6033C17.7332 25.6972 18.0597 25.2441 18.1794 24.7191C18.299 24.1944 18.1981 23.657 17.9964 22.5824L17.8128 21.6041C17.1031 17.8225 16.7482 15.9317 17.8372 14.935C18.9262 13.9382 20.7379 14.4957 24.361 15.6107L25.2985 15.8991C26.3281 16.216 26.8429 16.3744 27.3688 16.3085C27.8946 16.2427 28.3719 15.96 29.3266 15.3946L30.1956 14.8799Z" fill="#7ED957" stroke="#7ED957"/>
<path opacity="0.5" fill-rule="evenodd" clip-rule="evenodd" d="M17.726 1.47595C18.3605 0.841351 19.3895 0.841351 20.024 1.47595L24.3573 5.80928C24.9919 6.44387 24.9919 7.47278 24.3573 8.10738C23.7227 8.74197 22.694 8.74197 22.0594 8.10738L17.726 3.77404C17.0914 3.13945 17.0914 2.11054 17.726 1.47595ZM5.80928 4.72595C6.44388 4.09135 7.47278 4.09135 8.10738 4.72595L13.524 10.1426C14.1586 10.7772 14.1586 11.8061 13.524 12.4407C12.8895 13.0753 11.8605 13.0753 11.226 12.4407L5.80928 7.02404C5.17469 6.38945 5.17469 5.36054 5.80928 4.72595ZM25.3094 9.05928C25.944 8.42468 26.9727 8.42468 27.6073 9.05928L28.6907 10.1426C29.3253 10.7772 29.3253 11.8061 28.6907 12.4407C28.056 13.0753 27.0273 13.0753 26.3927 12.4407L25.3094 11.3574C24.6747 10.7228 24.6747 9.69387 25.3094 9.05928ZM1.47595 13.3926C2.11054 12.758 3.13945 12.758 3.77404 13.3926L4.85738 14.4759C5.49197 15.1105 5.49197 16.1394 4.85738 16.774C4.22278 17.4086 3.19388 17.4086 2.55928 16.774L1.47595 15.6907C0.841351 15.0561 0.841351 14.0272 1.47595 13.3926ZM6.89261 18.8093C7.52721 18.1747 8.55612 18.1747 9.19071 18.8093L12.4407 22.0593C13.0753 22.694 13.0753 23.7227 12.4407 24.3573C11.8061 24.9919 10.7772 24.9919 10.1426 24.3573L6.89261 21.1073C6.25802 20.4727 6.25802 19.444 6.89261 18.8093Z" fill="#7ED957" stroke="#7ED957"/>
</svg>
